# xmcd
#
# Track frame offsets:
#	150
#	5524
#	26863
#	48656
#	57423
#	77896
#	93238
#	118771
#	141113
#	162670
#	183695
#	208505
#	217580
#
# Disc length: 3187 seconds
#
# Revision: 0
# Processed by: cddbd v1.5.2PL0 Copyright (c) Steve Scherf et al.
# Submitted via: dBpowerAMP V4.0
#
DISCID=ba0c710d
DTITLE=Flowklorikos - Zerdos and diamantes
DYEAR=2002
DGENRE=Rap
TTITLE0=Intro
TTITLE1=Zerdos and diamantes
TTITLE2=Me gustan gordas
TTITLE3=En busca and captura
TTITLE4=Simplemente R-A-P
TTITLE5=Interludio
TTITLE6=Cae de trago (Con Hate)
TTITLE7=Volvi a ser..
TTITLE8=Acomplejadores a sueldo
TTITLE9=Deja de mirarme asi
TTITLE10=Mensaje en una botella
TTITLE11=Dias grises
TTITLE12=Kloroformo en el entorno (Con Shotta)
EXTD=
EXTT0=
EXTT1=
EXTT2=
EXTT3=
EXTT4=
EXTT5=
EXTT6=
EXTT7=
EXTT8=
EXTT9=
EXTT10=
EXTT11=
EXTT12=
PLAYORDER=
